# xmcd CD database file
#
# Track frame offsets:
#	150
#	11368
#	30149
#	49473
#	68411
#	84358
#	104801
#	125280
#	140067
#	159490
#	177695
#	195954
#
# Disc length: 2854 seconds
#
# Revision: 0
# Processed by: cddbd v1.5.1PL0 Copyright (c) Steve Scherf et al.
# Submitted via: CDex 1.50
#
DISCID=980b240c
DTITLE=Kathryn - Country Life
DYEAR=2005
DGENRE=Country
TTITLE0=Some Days You Gotta Dance
TTITLE1=Country Life
TTITLE2=Tamworth Queen
TTITLE3=More Than Luck
TTITLE4=Redneck Woman
TTITLE5=Mitta Hut
TTITLE6=Politician Man
TTITLE7=I Feel Lucky
TTITLE8=Old Don
TTITLE9=Snake Proof House
TTITLE10=The Thoroughbred Mare
TTITLE11=Let Me Loose
EXTD=YEAR: 2005
EXTT0=
EXTT1=
EXTT2=
EXTT3=
EXTT4=
EXTT5=
EXTT6=
EXTT7=
EXTT8=
EXTT9=
EXTT10=
EXTT11=
PLAYORDER=
